<svg xmlns="http://www.w3.org/2000/svg" width="47" height="25" viewBox="0 0 47 25">
    <g fill="none" fill-rule="evenodd">
        <g fill="#FFF" fill-rule="nonzero">
            <g>
                <g>
                    <g>
                        <path d="M46.07 17.06H33.874c-.25.002-.49-.095-.668-.27-.177-.175-.277-.414-.277-.664V8.874c0-.25.1-.489.277-.664.178-.175.418-.272.668-.27H46.07c.316 0 .572-.255.572-.57V.57c0-.315-.256-.571-.572-.571H30.107c-.246.004-.48.104-.653.28L25 4.944 20.534.28c-.17-.178-.406-.28-.653-.28H5.107c-.246.004-.48.104-.653.28L.244 4.71c-.154.174-.24.398-.244.63V24.43c0 .315.256.571.571.571H7.37c.316 0 .572-.256.572-.571V9.002c0-.515.417-.933.933-.933h7.252c.516 0 .933.418.933.933v15.427c0 .315.256.571.572.571h6.856c.315 0 .571-.256.571-.571v-4.385l4.455 4.664c.172.176.407.277.653.28H46.07c.316 0 .572-.255.572-.571v-6.786c0-.316-.256-.572-.572-.572z" transform="translate(-908.000000, -995.000000) translate(520.000000, 713.000000) translate(388.000000, 282.000000) translate(0.000000, -0.000000)"/>
                    </g>
                </g>
            </g>
        </g>
    </g>
</svg>
