<svg xmlns="http://www.w3.org/2000/svg" width="20" height="20" viewBox="0 0 20 20">
    <g fill="none" fill-rule="evenodd">
        <g fill="#FFF">
            <g>
                <path d="M14.523 8.176h5.234c.134 0 .243-.102.243-.227V5.227C20 5.1 19.891 5 19.757 5h-6.846c-.107 0-.208.04-.282.112l-1.91 1.874-1.912-1.874C8.734 5.041 8.632 5 8.526 5H2.19c-.106 0-.208.04-.281.113L.107 6.886C.038 6.953 0 7.042 0 7.135v7.638C0 14.9.109 15 .243 15h2.919c.134 0 .243-.101.243-.227v-6.18c0-.206.179-.373.4-.373h3.11c.22 0 .4.167.4.373v6.18c0 .126.11.227.243.227h2.919c.134 0 .243-.101.243-.227V13.02l1.91 1.869c.073.071.174.112.28.112h6.847c.134 0 .243-.101.243-.227v-2.722c0-.125-.109-.227-.243-.227h-5.234c-.221 0-.4-.167-.4-.374v-2.9c0-.207.179-.374.4-.374" transform="translate(-592 -50) translate(592 50)"/>
            </g>
        </g>
    </g>
</svg>
