<svg width="20" height="20" xmlns="http://www.w3.org/2000/svg">
    <path d="M16.637 7.09c0-.146-.003-.291-.01-.435a6.9 6.9 0 0 0 1.706-1.743 6.91 6.91 0 0 1-1.963.53 3.387 3.387 0 0 0 1.503-1.862 6.918 6.918 0 0 1-2.171.817 3.442 3.442 0 0 0-2.496-1.064c-1.888 0-3.42 1.508-3.42 3.366 0 .264.03.521.089.768A9.76 9.76 0 0 1 2.827 3.95a3.314 3.314 0 0 0-.463 1.692 3.35 3.35 0 0 0 1.521 2.801 3.434 3.434 0 0 1-1.548-.42l-.001.042c0 1.63 1.179 2.991 2.743 3.3a3.48 3.48 0 0 1-1.544.058 3.417 3.417 0 0 0 3.194 2.338 6.93 6.93 0 0 1-4.247 1.44c-.276 0-.548-.015-.815-.046a9.792 9.792 0 0 0 5.241 1.512c6.29 0 9.73-5.13 9.73-9.577z" fill="#26A5F2" fill-rule="evenodd"/>
</svg>
