<svg width="18" height="18" viewBox="0 0 18 18" xmlns="http://www.w3.org/2000/svg">
    <path d="M10.402 5.927c-.174.26-.267.566-.267.88l-.01-.004a1.578 1.578 0 0 0 .983 1.468c.194.08.401.12.61.118a1.583 1.583 0 1 0-1.316-2.462zm3.066-.292a2.104 2.104 0 0 1-.264 2.66 2.11 2.11 0 0 1-2.66.263 2.102 2.102 0 0 1-.897-2.165 2.107 2.107 0 0 1 3.821-.758zm-7.63 7.672-1.032-.427A1.786 1.786 0 0 0 6.47 13.89a1.775 1.775 0 0 0 1.593-1.117 1.78 1.78 0 0 0-2.28-2.327l1.063.44a1.31 1.31 0 0 1 .707 1.715 1.312 1.312 0 0 1-1.715.707zM8.939.581A8.387 8.387 0 0 0 .581 8.295l4.494 1.86a2.35 2.35 0 0 1 1.337-.414h.132l1.998-2.896v-.042a3.164 3.164 0 1 1 3.164 3.175h-.072l-2.843 2.034v.112a2.374 2.374 0 0 1-4.702.468L.876 11.266a8.39 8.39 0 0 0 11.094 5.536 8.384 8.384 0 0 0 4.484-11.56 8.386 8.386 0 0 0-7.51-4.65L8.94.581z" fill="#000" fill-rule="evenodd"/>
</svg>
