<?xml version="1.0" encoding="utf-8"?>
<!-- Generator: Adobe Illustrator 16.0.3, SVG Export Plug-In . SVG Version: 6.00 Build 0)  -->
<!DOCTYPE svg PUBLIC "-//W3C//DTD SVG 1.1//EN" "http://www.w3.org/Graphics/SVG/1.1/DTD/svg11.dtd">
<svg version="1.1" id="圖層_1" xmlns="http://www.w3.org/2000/svg" xmlns:xlink="http://www.w3.org/1999/xlink" x="0px" y="0px"
	 width="16px" height="16px" viewBox="0 0 16 16" enable-background="new 0 0 16 16" xml:space="preserve">
<g>
	<g>
		<path fill="#FFFFFF" d="M15.229,9.848c-0.481,0-0.436-0.114-0.853-0.328v3.174c0,0.693-1.074,1.769-1.769,1.769H3.3
			c-0.694,0-1.769-1.075-1.769-1.769V3.385c0-0.694,1.075-1.769,1.769-1.769h3.2C6.261,1.131,6.159,1.095,6.21,0.543
			c0.012-0.157,0.04-0.309,0.076-0.458H3.3c-1.82,0-3.3,1.48-3.3,3.3v9.308c0,1.819,1.48,3.3,3.3,3.3h9.308c1.82,0,3.3-1.48,3.3-3.3
			V9.771C15.688,9.821,15.458,9.848,15.229,9.848z"/>
	</g>
	<path fill="#FFFFFF" d="M16.016,1.072C16.016,0.48,15.536,0,14.942,0L9.229,0.046C9.176,0.043,9.121,0.044,9.067,0.049
		C8.535,0.086,8.11,0.511,8.073,1.043c-0.033,0.321,0.075,0.654,0.32,0.901l1.818,1.817L4.222,9.41
		c-0.377,0.377-0.378,0.988,0,1.366l0.692,0.692c0.377,0.378,0.989,0.378,1.366,0.001l5.99-5.82l1.831,1.832
		c0.386,0.386,0.982,0.428,1.415,0.131l0,0c0.027-0.019,0.056-0.038,0.08-0.06c0.056-0.044,0.106-0.095,0.15-0.15
		c0.021-0.025,0.041-0.051,0.058-0.077c0.001-0.001,0.003-0.002,0.003-0.003c0.159-0.233,0.22-0.513,0.182-0.782L16.016,1.072z"/>
</g>
</svg>
