<?xml version="1.0" encoding="utf-8"?>
<!-- Generator: Adobe Illustrator 16.0.3, SVG Export Plug-In . SVG Version: 6.00 Build 0)  -->
<!DOCTYPE svg PUBLIC "-//W3C//DTD SVG 1.1//EN" "http://www.w3.org/Graphics/SVG/1.1/DTD/svg11.dtd">
<svg version="1.1" id="圖層_1" xmlns="http://www.w3.org/2000/svg" xmlns:xlink="http://www.w3.org/1999/xlink" x="0px" y="0px"
	 width="16px" height="16px" viewBox="0 0 16 16" enable-background="new 0 0 16 16" xml:space="preserve">
<g>
	<path fill="#FFFFFF" d="M8.014,1.444c2.14,0,2.394,0.008,3.238,0.046c0.782,0.036,1.207,0.167,1.488,0.276
		c0.374,0.146,0.642,0.319,0.922,0.6c0.281,0.281,0.454,0.547,0.6,0.921c0.109,0.283,0.24,0.708,0.275,1.489
		c0.039,0.844,0.048,1.098,0.048,3.238c0,2.14-0.009,2.394-0.048,3.238c-0.035,0.781-0.166,1.207-0.275,1.488
		c-0.146,0.374-0.318,0.642-0.6,0.922c-0.28,0.281-0.548,0.454-0.922,0.6c-0.281,0.109-0.706,0.24-1.488,0.275
		c-0.844,0.039-1.098,0.048-3.238,0.048c-2.14,0-2.394-0.009-3.238-0.048c-0.782-0.035-1.207-0.166-1.489-0.275
		c-0.374-0.146-0.64-0.318-0.921-0.6c-0.281-0.28-0.455-0.548-0.6-0.922c-0.109-0.281-0.24-0.707-0.276-1.488
		c-0.038-0.844-0.046-1.098-0.046-3.238c0-2.14,0.008-2.394,0.046-3.238C1.526,3.995,1.657,3.57,1.766,3.287
		c0.146-0.374,0.319-0.64,0.6-0.921s0.547-0.455,0.921-0.6C3.57,1.657,3.995,1.526,4.776,1.49C5.621,1.452,5.875,1.444,8.014,1.444
		 M8.014,0C5.837,0,5.565,0.009,4.709,0.048C3.857,0.087,3.275,0.222,2.764,0.421C2.238,0.625,1.79,0.9,1.346,1.346
		C0.9,1.79,0.625,2.238,0.421,2.764C0.222,3.275,0.087,3.857,0.048,4.709C0.009,5.565,0,5.837,0,8.014
		c0,2.176,0.009,2.449,0.048,3.305c0.039,0.853,0.174,1.435,0.373,1.944c0.205,0.527,0.479,0.974,0.925,1.42
		c0.444,0.445,0.892,0.72,1.418,0.924c0.511,0.198,1.093,0.334,1.945,0.372c0.855,0.039,1.128,0.049,3.305,0.049
		c2.176,0,2.449-0.01,3.305-0.049c0.853-0.038,1.435-0.174,1.944-0.372c0.527-0.204,0.974-0.479,1.42-0.924
		c0.445-0.446,0.72-0.893,0.924-1.42c0.198-0.51,0.334-1.092,0.372-1.944c0.039-0.856,0.049-1.129,0.049-3.305
		c0-2.177-0.01-2.449-0.049-3.305c-0.038-0.853-0.174-1.435-0.372-1.945c-0.204-0.526-0.479-0.974-0.924-1.418
		c-0.446-0.446-0.893-0.72-1.42-0.925c-0.51-0.199-1.092-0.334-1.944-0.373C10.463,0.009,10.19,0,8.014,0L8.014,0z"/>
	<path fill="#FFFFFF" d="M8.014,3.898c-2.273,0-4.116,1.843-4.116,4.116c0,2.272,1.843,4.116,4.116,4.116
		c2.272,0,4.116-1.844,4.116-4.116C12.13,5.741,10.286,3.898,8.014,3.898z M8.014,10.686c-1.476,0-2.671-1.196-2.671-2.671
		c0-1.476,1.196-2.671,2.671-2.671c1.475,0,2.671,1.196,2.671,2.671C10.686,9.489,9.489,10.686,8.014,10.686z"/>
	<circle fill="#FFFFFF" cx="12.292" cy="3.736" r="0.961"/>
</g>
</svg>
