<svg width="20" height="20" xmlns="http://www.w3.org/2000/svg">
    <g fill-rule="nonzero" fill="none">
        <path d="M7.564 2.056h4.872c4.45 0 5.508 1.059 5.508 5.508v4.872c0 4.45-1.059 5.508-5.508 5.508H7.564c-4.45 0-5.508-1.059-5.508-5.508V7.564c0-4.45 1.059-5.508 5.508-5.508z" fill="#2787F5"/>
        <path d="M15.067 7.53c.074-.246 0-.426-.35-.426h-1.159a.5.5 0 0 0-.504.327s-.589 1.436-1.423 2.37c-.27.27-.393.355-.54.355-.074 0-.18-.086-.18-.331V7.529c0-.294-.086-.425-.332-.425H8.76c-.184 0-.295.136-.295.266 0 .28.417.344.46 1.13v1.705c0 .374-.067.442-.215.442-.392 0-1.348-1.442-1.914-3.093-.111-.32-.223-.45-.519-.45H5.117c-.33 0-.397.155-.397.327 0 .307.393 1.83 1.83 3.842.956 1.375 2.305 2.12 3.533 2.12.736 0 .827-.166.827-.45v-1.04c0-.33.07-.397.303-.397.172 0 .467.086 1.154.749.786.786.915 1.138 1.357 1.138h1.159c.33 0 .496-.166.4-.492-.104-.326-.479-.798-.977-1.358-.27-.319-.675-.663-.797-.835-.172-.22-.123-.319 0-.515 0 0 1.411-1.988 1.558-2.664z" fill="#FFF"/>
    </g>
</svg>
