<svg width="18" height="18" viewBox="0 0 18 18" xmlns="http://www.w3.org/2000/svg">
    <g fill="none" fill-rule="evenodd">
        <path d="M0 0h18v18H0z"/>
        <path d="M6.738 1.636v12.977l2.936.932V4.662c0-.51.228-.85.596-.732.477.133.57.601.57 1.112v4.346c1.83.882 3.271-.002 3.271-2.332 0-2.394-.844-3.457-3.328-4.309-.98-.331-2.796-.877-4.043-1.11h-.002zm3.492 12.011 4.722-1.682c.536-.191.62-.462.184-.605-.44-.142-1.227-.103-1.767.09l-3.154 1.11v-1.764l.18-.063s.9-.31 2.185-.455c1.272-.133 2.838.022 4.077.489 1.386.444 1.531 1.088 1.182 1.532-.348.444-1.216.766-1.216.766l-6.408 2.298v-1.699l.015-.017zm-8.874-.176c-1.425-.403-1.66-1.233-1.014-1.716.6-.433 1.619-.777 1.619-.777l4.212-1.489v1.71l-3.019 1.089c-.529.2-.619.467-.18.61.44.145 1.228.112 1.758-.088l1.453-.522v1.534c-.09.021-.192.032-.293.054a9.48 9.48 0 0 1-4.527-.355l-.01-.05z" fill="#000" fill-rule="nonzero"/>
    </g>
</svg>
