<svg xmlns="http://www.w3.org/2000/svg" xmlns:xlink="http://www.w3.org/1999/xlink" width="16" height="16" viewBox="0 0 16 16">
    <defs>
        <path id="b8y84cr9ma" d="M0 0.036L15.995 0.036 15.995 14.2 0 14.2z"/>
    </defs>
    <g fill="none" fill-rule="evenodd">
        <g>
            <g>
                <g>
                    <g>
                        <g transform="translate(-894 -261) translate(740 241) translate(154 20) translate(0 .667) translate(0 .014)">
                            <mask id="jgktxek1fb" fill="#fff">
                                <use xlink:href="#b8y84cr9ma"/>
                            </mask>
                            <path fill="#004C98" d="M.288 7.118h13.129l2.29-2.29v6.675l-2.41 2.41H.288V7.117zM1.93 1.751c0-.027.022-.048.05-.048h2.312c.013 0 .026.005.035.014l.553.553c.009.009.014.021.014.034v1.123c0 .013-.005.025-.014.035l-.553.553c-.01.009-.022.014-.035.014H2.89c-.027 0-.05.022-.05.049v1.015c0 .027-.021.048-.048.048H1.98c-.027 0-.049-.021-.049-.048V1.75zm3.323.553c0-.013.005-.025.014-.034l.553-.553c.009-.01.021-.015.034-.015h.26c.027 0 .049.022.049.05v2.532c0 .027.022.048.049.048h1.505c.034 0 .058.035.046.067l-.271.71c-.007.019-.025.032-.046.032H5.3c-.027 0-.048-.021-.048-.048V2.304zm2.735 2.771l1.268-3.341c.007-.019.025-.031.046-.031h.858c.02 0 .038.012.045.031l1.268 3.341c.012.032-.011.066-.045.066h-.86c-.022 0-.04-.013-.047-.033l-.18-.54c-.006-.02-.025-.033-.046-.033H9.12c-.02 0-.04.013-.046.033l-.18.54c-.007.02-.026.033-.047.033h-.814c-.034 0-.058-.034-.046-.066zm2.756-3.372h.94c.018 0 .034.009.042.023l.652 1.085c.019.031.065.031.084 0l.637-1.084c.009-.015.025-.024.042-.024h.874c.039 0 .062.042.041.074l-1.213 1.901c-.005.008-.008.017-.008.026v.836c0 .013-.005.025-.014.034l-.553.553c-.01.01-.022.014-.035.014h-.26c-.027 0-.048-.021-.048-.048V3.704c0-.009-.003-.018-.008-.026l-1.214-1.9c-.02-.033.003-.075.041-.075zm5.25-1.667H0V14.2h13.417l2.578-2.578V.036z" mask="url(#jgktxek1fb)"/>
                        </g>
                        <path fill="#004C98" d="M11.127 11.172H9.448c-.07 0-.128-.057-.128-.128v-.998c0-.07.057-.128.128-.128h1.68c.042 0 .077-.035.077-.078v-.937c0-.043-.035-.078-.078-.078H8.931c-.034 0-.067.014-.09.04l-.613.643-.613-.644c-.024-.025-.057-.039-.09-.039H5.491c-.034 0-.067.014-.09.04l-.579.609c-.022.023-.034.054-.034.086v2.626c0 .044.035.078.078.078h.936c.044 0 .078-.034.078-.078v-2.125c0-.07.058-.128.129-.128h.997c.072 0 .13.057.13.128v2.125c0 .044.034.078.077.078h.936c.043 0 .078-.034.078-.078v-.603l.613.643c.023.024.056.038.09.038h2.196c.043 0 .078-.034.078-.078v-.936c0-.043-.035-.078-.078-.078M9.406 3.8h.604c.033 0 .056-.033.046-.064l-.302-.905c-.015-.044-.077-.044-.092 0l-.302.905c-.01.031.013.064.046.064M2.89 3.234h.982l.112-.112v-.485l-.112-.111H2.89c-.027 0-.05.021-.05.048v.61c0 .028.023.05.05.05" transform="translate(-894 -261) translate(740 241) translate(154 20) translate(0 .667)"/>
                    </g>
                </g>
            </g>
        </g>
    </g>
</svg>
