<svg xmlns="http://www.w3.org/2000/svg" width="20" height="20" viewBox="0 0 20 20">
    <g fill="none" fill-rule="evenodd">
        <g fill="#1F3263" fill-rule="nonzero">
            <g>
                <path d="M6.215 8.09c1.244 2.878 3.25 4.874 5.695 5.695l1.037-1.037c.233-.233.579-.311.881-.207.968.32 2.014.492 3.086.492.475 0 .864.39.864.865v3.016c0 .475-.39.864-.864.864-8.115 0-14.692-6.577-14.692-14.692 0-.475.39-.864.864-.864h3.025c.475 0 .864.39.864.864 0 1.08.173 2.118.493 3.086.095.302.026.64-.216.881L6.215 8.09z" transform="translate(-90 -50) translate(90 50)"/>
            </g>
        </g>
    </g>
</svg>
