<svg width="18" height="18" viewBox="0 0 18 18" xmlns="http://www.w3.org/2000/svg">
    <g fill="none" fill-rule="evenodd">
        <path d="M0 0h18v18H0z"/>
        <path d="M3.615 15.159A8.146 8.146 0 0 0 9 17.182a8.154 8.154 0 0 0 5.388-2.023C15.668 13.855 11.445 9.22 9 7.375c-2.442 1.846-6.667 6.48-5.385 7.784zm7.61-9.822c1.704 2.018 5.102 7.031 4.142 8.803a8.143 8.143 0 0 0 1.815-5.137c0-2.278-.93-4.338-2.434-5.82 0 0-.019-.015-.056-.029a.562.562 0 0 0-.192-.03c-.403 0-1.353.295-3.276 2.213zM3.31 3.154c-.04.014-.056.028-.06.029a8.152 8.152 0 0 0-2.432 5.82c0 1.946.68 3.731 1.815 5.136-.956-1.776 2.44-6.785 4.145-8.802-1.923-1.918-2.875-2.213-3.277-2.213a.494.494 0 0 0-.191.031zM9 3.24S6.992 2.065 5.424 2.01c-.616-.023-.991.2-1.037.23C5.849 1.26 7.404.82 8.989.82H9c1.591 0 3.14.44 4.613 1.42-.046-.03-.42-.253-1.036-.23C11.009 2.065 9 3.235 9 3.235v.004z" fill="#127D12" fill-rule="nonzero"/>
    </g>
</svg>
