<svg width="20" height="20" xmlns="http://www.w3.org/2000/svg">
    <g transform="translate(.833 .833)" fill="none" fill-rule="evenodd">
        <rect fill="#FFF" width="18.333" height="18.333" rx="8.333"/>
        <rect fill="#00B900" width="18.333" height="18.333" rx="8.333"/>
        <path d="M14.667 8.234c0-2.518-2.468-4.567-5.5-4.567-3.033 0-5.5 2.049-5.5 4.567 0 2.258 1.956 4.148 4.6 4.506.178.04.422.12.484.277.055.143.036.366.018.51l-.079.481c-.024.142-.11.557.477.303.587-.253 3.167-1.908 4.321-3.267.797-.895 1.179-1.802 1.179-2.81" fill="#FFF"/>
        <g fill="#00B900">
            <path d="M7.953 7.104h-.395c-.06 0-.11.047-.11.106v2.359c0 .058.05.105.11.105h.395c.06 0 .11-.047.11-.105v-2.36a.108.108 0 0 0-.11-.105M10.667 7.104h-.394c-.06 0-.11.047-.11.106V8.61l-1.122-1.46a.116.116 0 0 0-.016-.018l-.002-.002a.108.108 0 0 0-.006-.004l-.003-.002-.006-.004a.135.135 0 0 0-.01-.005l-.002-.002-.006-.002-.004-.002a.056.056 0 0 0-.01-.003.052.052 0 0 0-.007 0l-.004-.001-.006-.001h-.404c-.06 0-.11.046-.11.105v2.359c0 .058.05.105.11.105h.395c.06 0 .11-.047.11-.105V8.168l1.123 1.462c.008.01.018.019.028.026h.001l.007.005.003.001.005.003.006.002h.003c.002.002.005.003.007.003h.002a.11.11 0 0 0 .028.004h.394c.06 0 .11-.047.11-.105v-2.36a.108.108 0 0 0-.11-.105M7.002 9.083H5.93V7.21a.108.108 0 0 0-.11-.106h-.394c-.06 0-.11.047-.11.106v2.359c0 .028.012.054.031.073l.002.001.002.002a.11.11 0 0 0 .075.03h1.576c.06 0 .11-.048.11-.106v-.38a.107.107 0 0 0-.11-.106M12.846 7.695c.06 0 .109-.047.109-.105v-.38a.107.107 0 0 0-.11-.106H11.27a.111.111 0 0 0-.076.03l-.002.001-.001.002a.103.103 0 0 0-.03.073v2.359c0 .028.011.054.03.073l.001.001.002.002c.02.018.046.03.076.03h1.576c.06 0 .109-.048.109-.106v-.38a.108.108 0 0 0-.11-.106h-1.071v-.398h1.072c.06 0 .109-.048.109-.106V8.2a.108.108 0 0 0-.11-.105h-1.071v-.399h1.072z"/>
        </g>
    </g>
</svg>
