<svg width="18" height="18" viewBox="0 0 18 18" xmlns="http://www.w3.org/2000/svg">
    <path d="M17.781 7.537A.218.218 0 0 0 18 7.32V4.717a.218.218 0 0 0-.219-.217H11.62a.351.351 0 0 0-.253.108l-1.72 1.79-1.72-1.79a.345.345 0 0 0-.253-.108H1.972a.35.35 0 0 0-.253.108L.096 6.303A.343.343 0 0 0 0 6.541v7.305c0 .12.098.216.219.216h2.626c.121 0 .22-.097.22-.216v-5.91c0-.197.16-.357.36-.357h2.798c.2 0 .36.16.36.357v5.91c0 .12.099.216.22.216h2.626a.218.218 0 0 0 .219-.216v-1.678l1.719 1.787a.346.346 0 0 0 .252.107h6.162a.218.218 0 0 0 .219-.216v-2.604a.217.217 0 0 0-.219-.216h-4.71c-.2 0-.361-.16-.361-.358V7.894c0-.197.161-.357.36-.357h4.711z" fill="#1F3263" fill-rule="nonzero"/>
</svg>
