<svg xmlns="http://www.w3.org/2000/svg" xmlns:xlink="http://www.w3.org/1999/xlink" width="18" height="18" viewBox="0 0 18 18">
    <defs>
        <path id="1wuw92fhwa" d="M0 0.041L17.994 0.041 17.994 15.975 0 15.975z"/>
    </defs>
    <g fill="none" fill-rule="evenodd">
        <g>
            <g>
                <g>
                    <g>
                        <g transform="translate(-893 -272) translate(740 253) translate(153 19) translate(0 1) translate(0 .016)">
                            <mask id="zdnpria2wb" fill="#fff">
                                <use xlink:href="#1wuw92fhwa"/>
                            </mask>
                            <path fill="#FFF" d="M.324 8.008h14.77l2.576-2.576v7.509l-2.71 2.71H.324V8.008zM2.172 1.97c0-.03.024-.055.055-.055h2.602c.014 0 .028.006.039.016l.622.623c.01.01.016.024.016.038v1.263c0 .015-.006.029-.016.04l-.622.621c-.01.01-.025.016-.04.016H3.252c-.03 0-.055.025-.055.055V5.73c0 .03-.025.055-.055.055h-.914c-.03 0-.055-.024-.055-.055V1.97zm3.737.622c0-.014.006-.028.016-.038l.622-.623c.01-.01.024-.016.039-.016h.292c.03 0 .055.025.055.055V4.82c0 .03.025.055.055.055h1.694c.038 0 .065.038.051.074l-.305.799c-.007.022-.028.037-.052.037H5.964c-.03 0-.055-.024-.055-.055V2.592zM8.987 5.71l1.426-3.76c.008-.02.028-.035.051-.035h.966c.023 0 .043.014.051.036l1.426 3.759c.014.036-.013.074-.051.074h-.968c-.023 0-.044-.015-.052-.037l-.202-.608c-.008-.022-.029-.038-.052-.038h-1.32c-.024 0-.045.016-.053.038l-.202.608c-.008.022-.029.037-.052.037h-.917c-.038 0-.065-.038-.051-.074zm3.1-3.795h1.058c.02 0 .037.01.047.027l.733 1.22c.022.036.073.035.095 0l.716-1.22c.01-.016.028-.027.048-.027h.983c.044 0 .07.048.047.085l-1.366 2.138c-.006.009-.009.019-.009.03v.94c0 .014-.006.028-.016.038l-.622.622c-.01.01-.024.016-.039.016h-.292c-.03 0-.055-.024-.055-.055V4.167c0-.01-.003-.02-.008-.03L12.04 2c-.023-.037.003-.085.046-.085zM17.994.041H0v15.934h15.094l2.9-2.9V.04z" mask="url(#zdnpria2wb)"/>
                        </g>
                        <path fill="#FFF" d="M12.518 12.569H10.63c-.08 0-.144-.065-.144-.145v-1.122c0-.08.064-.145.144-.145h1.89c.048 0 .087-.039.087-.087v-1.054c0-.048-.04-.087-.088-.087h-2.47c-.04 0-.076.015-.102.043l-.69.725-.69-.725c-.026-.028-.063-.043-.101-.043H6.179c-.039 0-.076.015-.102.043l-.65.686c-.025.026-.04.06-.04.097v2.955c0 .048.04.087.089.087h1.053c.048 0 .088-.039.088-.087v-2.391c0-.08.064-.145.144-.145h1.122c.08 0 .145.065.145.145v2.39c0 .05.04.088.088.088h1.053c.048 0 .088-.039.088-.087v-.679l.689.723c.026.028.063.043.101.043h2.471c.049 0 .088-.039.088-.087v-1.054c0-.048-.04-.087-.088-.087M10.582 4.275h.679c.037 0 .064-.037.052-.072l-.34-1.018c-.016-.05-.087-.05-.104 0l-.339 1.018c-.012.035.015.072.052.072M3.25 3.638h1.106l.126-.126v-.546l-.126-.125H3.251c-.03 0-.055.025-.055.055v.687c0 .03.024.055.055.055" transform="translate(-893 -272) translate(740 253) translate(153 19) translate(0 1)"/>
                    </g>
                </g>
            </g>
        </g>
    </g>
</svg>
